<svg id="Capa_1" enable-background="new 0 0 512 512" height="512" viewBox="0 0 512 512" width="512" xmlns="http://www.w3.org/2000/svg"><g><g><g><path d="m37.904 503.957h263.691c13.071 0 23.667-10.596 23.667-23.667 0-13.071-10.596-23.667-23.667-23.667h-23.497c-10.069 0-18.231-8.162-18.231-18.231 0-10.069-8.162-18.231-18.231-18.231h-203.732z" fill="#a6e7f0"/></g><g><path d="m325.258 480.29c0 13.071-10.594 23.665-23.665 23.665h-263.689v-18.722h243.509c13.071 0 23.665-10.594 23.665-23.665 0-1.628-.16-3.215-.479-4.753 5.332.679 10.115 3.125 13.73 6.74 4.282 4.283 6.929 10.205 6.929 16.735z" fill="#6bd9e7"/></g></g><g><g><path d="m498.869 13.678c-7.263-7.263-18.963-7.503-26.517-.543l-270.783 249.242 24.301 24.301 24.301 24.301 249.241-270.783c6.96-7.555 6.72-19.255-.543-26.518z" fill="#26a6fe"/></g><g><path d="m499.412 40.193-249.24 270.788-15.836-15.836 245.085-266.265c5.292-5.751 6.42-13.879 3.455-20.649 5.691-.739 11.643 1.098 15.996 5.452 7.26 7.259 7.499 18.961.54 26.51z" fill="#0593fc"/></g><g><path d="m118.363 296.842h125.952v68.732h-125.952z" fill="#deecf1" transform="matrix(.707 -.707 .707 .707 -181.087 225.235)"/></g><g><path d="m134.817 336.565h125.952v22.194h-125.952z" fill="#cbe5e8" transform="matrix(.707 -.707 .707 .707 -187.902 241.689)"/></g><g><path d="m143.205 471.002c5.285-3.934 10.068-8.13 13.927-12.415 22.107-24.546 30.163-58.013 13.384-87.828-19.791-35.169-64.345-47.637-99.528-27.841-19.261 10.837-33.179 27.5-38.833 48.981-3.131 11.894-2.768 24.224-2.924 36.412-.158 12.433-1.191 22.711-7.149 33.761-4.698 8.712-17.295 16.408-14.047 27.824 5.592 19.629 40.087 13.665 55.125 11.479 14.508-2.109 28.94-5.236 42.756-10.205 11.893-4.278 25.78-11.601 37.289-20.168z" fill="#7ca1b1"/></g><g><path d="m157.136 458.584c-3.867 4.288-8.645 8.485-13.935 12.422-11.501 8.565-25.395 15.888-37.287 20.166-13.815 4.969-28.25 8.095-42.756 10.198-15.037 2.194-49.528 8.155-55.118-11.47-.691-2.414-.671-4.668-.16-6.792 13.013 4.318 32.328 1.062 42.596-.431 14.506-2.104 28.932-5.229 42.756-10.198 11.891-4.278 25.776-11.601 37.287-20.176 5.279-3.927 10.068-8.124 13.925-12.412 20.987-23.292 29.312-54.628 15.748-83.249 3.917 4.187 7.393 8.906 10.328 14.115 16.77 29.814 8.716 63.284-13.384 87.827z" fill="#678d98"/></g><path d="m255.58 316.157c.034-.035.071-.067.105-.103l249.24-270.78c9.718-10.548 9.385-26.755-.756-36.896-10.141-10.141-26.348-10.473-36.893-.758l-183.258 168.679c-3.046 2.804-3.242 7.545-.439 10.591 2.803 3.045 7.545 3.242 10.591.439l183.26-168.682c4.613-4.25 11.702-4.104 16.139.332 4.435 4.435 4.581 11.524.328 16.141l-243.951 265.033-6.367-6.366-31.186-31.185 55.921-51.473c3.046-2.804 3.242-7.545.439-10.591-2.803-3.045-7.546-3.242-10.591-.439l-61.67 56.763c-.038.035-.07.074-.107.109-.038.037-.079.068-.117.105l-71.112 71.112c-18.963-4.439-39.572-2.083-57.844 8.198-21.73 12.226-36.394 30.763-42.407 53.605-2.966 11.27-3.048 22.591-3.128 33.539-.011 1.563-.022 3.126-.042 4.686-.155 12.133-1.227 20.981-6.252 30.298-1.1 2.04-3.068 4.338-5.153 6.771-5.415 6.32-12.83 14.976-9.505 26.666 4.47 15.691 20.432 19.483 36.091 19.483.182 0 .364-.004.547-.005.146.009 134.652.023 134.652.023 4.14 0 7.495-3.355 7.495-7.496s-3.356-7.495-7.495-7.495h-59.06c11.864-4.789 24.251-11.726 34.624-19.448 5.926-4.411 10.98-8.923 15.021-13.41 9.974-11.075 16.923-23.328 20.75-35.948h58.183c5.92 0 10.736 4.816 10.736 10.736 0 14.186 11.541 25.727 25.726 25.727h23.497c8.917 0 16.172 7.254 16.172 16.172s-7.255 16.172-16.172 16.172h-94.695c-4.14 0-7.495 3.355-7.495 7.495s3.356 7.496 7.495 7.496h94.695c17.183 0 31.163-13.98 31.163-31.163s-13.979-31.163-31.163-31.163h-23.497c-5.919 0-10.735-4.816-10.735-10.736 0-14.186-11.541-25.727-25.727-25.727h-55.131c.913-8.649.381-17.322-1.652-25.769l70.617-70.618c.042-.038.075-.08.113-.12zm-104.017 137.415c-3.381 3.754-7.698 7.595-12.833 11.418-10.435 7.768-23.65 14.919-35.35 19.128-10.585 3.806-21.549 6.48-32.616 8.444-11.219 1.991-23.494 4.009-34.906 3.887-6.704-.071-18.333-.572-20.614-8.608-1.008-3.552 1.313-6.78 6.472-12.802 2.507-2.927 5.1-5.954 6.964-9.409 7.078-13.125 7.987-27.434 8.089-41.99.076-10.483.148-20.385 2.634-29.832 4.956-18.827 17.149-34.166 35.26-44.357 10.144-5.708 21.173-8.417 32.059-8.417 22.938 0 45.236 12.032 57.262 33.401 13.96 24.806 9.2 55.128-12.421 79.137zm27.68-82.267c-.69-1.418-1.41-2.829-2.194-4.222-8.57-15.228-21.394-26.577-36.146-33.44l60.666-60.666 38.001 38z"/></g></g></svg>