<svg height="512" viewBox="0 0 60 61" width="512" xmlns="http://www.w3.org/2000/svg"><g id="012---Stanley-Knife" fill="none"><g id="Icons" transform="translate(1 2)"><path id="Shape" d="m20 42.14-15.3 15.34-4.25-9.9 12.55-12.52 1.37 5c.0933711.3405617.3594383.6066289.7.7z" fill="#707070"/><path id="Shape" d="m17.28 41.39-6.55 6.54-4.24 4.25-2.84 2.82-3.2-7.44 12.55-12.56c.16.63.42 1.56 1.37 5 .0933711.3405617.3594383.6066289.7.7z" fill="#9e9e9e"/><path id="Shape" d="m52 17.42c-4.3612084 1.4984786-8.3292512 3.9592803-11.61 7.2l-17.71 17.71c-.25927.2655008-.6442452.3655944-1 .26-2.21-.59-.83-.22-6.67-1.82-.3405617-.0933711-.6066289-.3594383-.7-.7-1.62-5.91-1.22-4.46-1.82-6.67-.1055944-.3557548-.0055008-.74073.26-1l29.67-29.61c3.3611539-3.45459699 8.8187866-3.72944179 12.51-.63 2.4066066 2.10562424 3.5152264 5.33010017 2.9122614 8.4704571-.602965 3.140357-2.8269573 5.7249539-5.8422614 6.7895429z" fill="#f44335"/><path id="Shape" d="m52 17.42c-4.3612084 1.4984786-8.3292512 3.9592803-11.61 7.2l-17.71 17.71c-.25927.2655008-.6442452.3655944-1 .26-2.21-.59-.83-.22-6.67-1.82-.3405617-.0933711-.6066289-.3594383-.7-.7-.1-.37-.19-.71-.28-1 4.66 1.28 3.59 1 5.65 1.54.3557548.1055944.74073.0055008 1-.26l17.7-17.71c3.2816243-3.2492116 7.2533657-5.7170234 11.62-7.22 2.679269-.9430348 4.7561354-3.095519 5.6027911-5.80678636.8466558-2.71126738.3637316-5.66310521-1.3027911-7.96321364 2.7059523 1.96595763 4.0984781 5.27036409 3.6157688 8.5800709-.4827093 3.3097068-2.7610243 6.0787338-5.9157688 7.1899291z" fill="#c81e1e"/><path id="Shape" d="m29.44 29.9-2.12 2.1c-.1175394.1264562-.2562983.2313714-.41.31-.7835849.4576266-1.7770666.3303624-2.42-.31l-1.41-1.41c-.3755541-.3751365-.5865733-.8841815-.5865733-1.415s.2110192-1.0398635.5865733-1.415l2.12-2.12c.3751365-.3755541.8841815-.5865733 1.415-.5865733s1.0398635.2110192 1.415.5865733l1.41 1.41c.3817157.3759148.5966558.8892587.5966558 1.425s-.2149401 1.0490852-.5966558 1.425z" fill="#9e9e9e"/><path id="Shape" d="m39.93 18-9.93 10c-.0763511-.3361788-.250294-.6423184-.5-.88l-1.5-1.46c-.2430337-.2427683-.5470412-.4154999-.88-.5l10-10c.1877666-.1893127.4433625-.2957983.71-.2957983s.5222334.1064856.71.2957983l1.41 1.42c.1866929.1904202.2895956.447521.28584.7141668-.0037556.2666457-.1138583.5207465-.30584.7058332z" fill="#37474f"/></g><g id="Layer_10" fill="#000"><path id="Shape" d="m24.79 34.73c1.1712702 1.1698135 3.0687298 1.1698135 4.24 0l2.12-2.12c.6004382-.6008562.9105622-1.4327183.85-2.28l9.63-9.62c.3755541-.3751365.5865733-.8841815.5865733-1.415s-.2110192-1.0398635-.5865733-1.415l-1.42-1.41c-.3751365-.3755541-.8841815-.5865733-1.415-.5865733s-1.0398635.2110192-1.415.5865733l-9.62 9.62c-.8474423-.0488047-1.6758937.2636813-2.28.86l-2.12 2.12c-.5648636.5629056-.8823657 1.3275456-.8823657 2.125s.3175021 1.5620944.8823657 2.125zm14-16.85 1.41 1.42-9.07 9.07-1.39-1.37zm-14 12.61c2.3-2.3 2.28-2.42 2.83-2.42.2637693.003757.5153695.1115857.7.3l1.42 1.41c.1893127.1877666.2957983.4433625.2957983.71s-.1064856.5222334-.2957983.71l-2.12 2.12c-.1877666.1893127-.4433625.2957983-.71.2957983s-.5222334-.1064856-.71-.2957983l-1.41-1.42c-.3877236-.3900375-.3877236-1.0199625 0-1.41z"/><path id="Shape" d="m46 9c.3147573 0 .6111456-.14819416.8-.4.6155678-.8768635 1.5663092-1.460173 2.626902-1.61168625 1.0605927-.15151326 2.1366312.14225627 2.973098.81168625.2858125.21435935.6642734.25995643.9928203.11961524.3285469-.14034118.5572656-.44529946.6-.8s-.1070078-.70525589-.3928203-.91961524c-1.2502068-1.01581425-2.8676087-1.46381751-4.4622866-1.23600638-1.594678.22781114-3.0219428 1.11076678-3.9377134 2.43600638-.2272632.30301765-.2638192.70842957-.0944272 1.0472136.169392.33878402.5156551.5527864.8944272.5527864z"/><path id="Shape" d="m44.71 10.71c.3881684-.3913645.3864418-1.02303753-.0038603-1.41227419-.390302-.38923665-1.0219774-.38923665-1.4122794 0-.3903021.38923666-.3920287 1.02090969-.0038603 1.41227419.1877666.1893127.4433625.2957983.71.2957983s.5222334-.1064856.71-.2957983z"/><path id="Shape" d="m59 59h-51.41l13.75-13.75c.5244199.1954114 1.0726075.3198466 1.63.37.5339247-.0101363 1.0416218-.2333789 1.41-.62l17.71-17.7c3.1655939-3.1528225 7.0053262-5.5462442 11.23-7 3.3717051-1.171694 5.8632156-4.0517646 6.5374575-7.5569979.6742419-3.50523321-.5710288-7.10408471-3.2674575-9.4430021-4.0850819-3.45522189-10.1467089-3.16262174-13.88.67l-29.64 29.75c-.5090127.5064374-.7074802 1.2468738-.52 1.94l.3 1.1-12.1 12.11c-.30453336.2924519-.39257386.7446599-.22 1.13l3.87 9h-3.4c-.55228475 0-1 .4477153-1 1s.44771525 1 1 1h58c.5522847 0 1-.4477153 1-1s-.4477153-1-1-1zm-48.72-5.51-3.4-7.92 2.72-2.72 3.4 7.92zm33.85-48c2.9852246-3.08793218 7.8502411-3.34122748 11.14-.58 2.14185 1.87213905 3.1284215 4.74084798 2.5911274 7.5343657-.5372941 2.7935177-2.5176228 5.0915848-5.2011274 6.0356343-4.511436 1.5400415-8.6144962 4.0839388-12 7.44l-17.66 17.7-6.7-1.82-1.82-6.66zm-29.76 36.84c.1885507.6836447.7250306 1.2163198 1.41 1.4l3.34.91-4.6 4.6-3.4-7.92 2.34-2.32zm-9 4.76 3.38 7.91-2.75 2.73-3.36-7.92z"/></g></g></svg>