<svg height="512pt" viewBox="0 0 512.00101 512" width="512pt" xmlns="http://www.w3.org/2000/svg"><path d="m501.882812 256c0 135.796875-110.085937 245.886719-245.882812 245.886719-135.800781 0-245.886719-110.089844-245.886719-245.886719s110.085938-245.886719 245.886719-245.886719c135.796875 0 245.882812 110.089844 245.882812 245.886719zm0 0" fill="#79b2ff"/><path d="m456.859375 256c0 111.070312-90.039063 201.105469-201.105469 201.105469-51.363281 0-98.230468-19.253907-133.777344-50.941407-6-5.351562-11.679687-11.054687-17.003906-17.082031-4.597656-5.207031-8.925781-10.648437-12.972656-16.308593-23.519531-32.921876-37.355469-73.230469-37.355469-116.773438 0-111.070312 90.039063-201.105469 201.105469-201.105469 111.070312 0 201.109375 90.035157 201.109375 201.105469zm0 0" fill="#f9f9f9"/><path d="m291.515625 151.144531c.097656-3.777343 1.414063-7.527343 3.425781-11.019531l.023438-.035156c-11.992188-3.917969-24.796875-6.046875-38.097656-6.046875-12.261719 0-24.09375 1.808593-35.261719 5.160156 6.21875 12.523437 1.140625 27.699219-10.851563 34.546875-12.238281 7.066406-27.808594 3.109375-35.242187-8.777344-18.242188 16.21875-31.601563 37.804688-37.605469 62.28125 13.808594 1.054688 24.210938 12.964844 24.140625 26.644532 0 14.195312-11.308594 25.738281-25.40625 26.136718 4.855469 25.003906 17.320313 47.285156 34.882813 64.351563 7.636718-11.914063 23.515624-15.277344 35.582031-8.234375 12.507812 7.222656 16.796875 23.21875 9.574219 35.730468l-.1875.320313c12.644531 4.414063 26.226562 6.820313 40.375 6.820313 11.769531 0 23.148437-1.664063 33.921874-4.761719-7.304687-12.671875-2.457031-28.835938 10.078126-36 12.769531-7.375 29.597656-2.355469 36.378906 10.699219 18.984375-16.527344 32.828125-38.804688 38.816406-64.121094h-.332031c-14.445313 0-26.15625-11.710938-26.15625-26.15625v-.570313c0-14.445312 11.707031-26.15625 26.15625-26.15625h1.15625c-5.167969-25.386719-18.195313-47.910156-36.421875-64.9375-2.023438 3.351563-4.6875 6.09375-7.742188 8.152344 0 0-14.664062 10.917969-30.445312-.722656 0 0-11.234375-5.769531-10.761719-23.304688zm0 0" fill="#ff6977"/><path d="m302.175781 256.53125c0 25.082031-20.332031 45.414062-45.414062 45.414062-25.078125 0-45.410157-20.332031-45.410157-45.414062s20.332032-45.414062 45.410157-45.414062c25.082031 0 45.414062 20.332031 45.414062 45.414062zm0 0" fill="#fdfdfd"/><path d="m437.019531 74.980469c-48.351562-48.351563-112.640625-74.980469-181.019531-74.980469s-132.667969 26.628906-181.019531 74.980469c-48.351563 48.355469-74.980469 112.640625-74.980469 181.019531s26.628906 132.667969 74.980469 181.019531c48.351562 48.351563 112.640625 74.980469 181.019531 74.980469s132.667969-26.628906 181.019531-74.980469c48.351563-48.351562 74.980469-112.640625 74.980469-181.019531s-26.628906-132.667969-74.980469-181.019531zm-14.304687 347.734375c-44.53125 44.53125-103.738282 69.058594-166.714844 69.058594s-122.183594-24.527344-166.714844-69.058594-69.054687-103.738282-69.054687-166.714844 24.523437-122.183594 69.054687-166.714844 103.738282-69.054687 166.714844-69.054687 122.183594 24.523437 166.714844 69.054687 69.054687 103.738282 69.054687 166.714844-24.523437 122.183594-69.054687 166.714844zm0 0"/><path d="m256 44.777344c-116.46875 0-211.222656 94.753906-211.222656 211.222656 0 40.574219 11.539062 79.992188 33.363281 113.984375 7.019531 10.925781 24.050781.015625 17.023437-10.929687-19.730468-30.726563-30.15625-66.363282-30.15625-103.054688 0-105.316406 85.679688-190.996094 190.992188-190.996094s190.992188 85.679688 190.992188 190.996094c0 105.3125-85.679688 190.992188-190.992188 190.992188-38.292969 0-75.234375-11.289063-106.824219-32.644532-10.761719-7.273437-22.101562 9.476563-11.328125 16.761719 34.949219 23.621094 75.804688 36.109375 118.152344 36.109375 116.46875 0 211.21875-94.75 211.21875-211.21875s-94.75-211.222656-211.21875-211.222656zm0 0"/><path d="m111.804688 385.910156c-5.40625 0-10.023438 4.527344-10.097657 9.9375-.074219 5.613282 4.523438 10.253906 10.121094 10.257813 5.582031.007812 10.199219-4.742188 10.082031-10.324219-.109375-5.367188-4.742187-9.871094-10.105468-9.871094zm0 0"/><path d="m172.644531 354.222656c5.199219-.851562 8.714844-6.378906 13.359375-9.292968 10.496094-6.585938 24.621094 2.175781 23.488282 14.4375-1.175782 12.777343-4.699219 20.890624 10.714843 24.894531 21.75 5.652343 44.796875 6.242187 66.808594 1.703125 4.777344-.984375 10.082031-2.644532 12.25-7.019532 2.761719-5.566406-1.066406-12.066406-1.222656-18.28125-.316407-12.785156 15.222656-20.382812 25.117187-12.261718 4.144532 3.402344 6.832032 9.128906 12.078125 10.238281 4.796875 1.011719 9.320313-2.410156 12.867188-5.796875 17.285156-16.523438 30.058593-37.726562 36.578125-60.734375 3.890625-13.714844-3.503906-15.050781-14.210938-18.644531-13.898437-4.671875-14.003906-25.230469-.128906-30.023438 10.875-3.761718 18.949219-4.496094 15.378906-18.667968-5.804687-23.042969-17.839844-44.480469-34.484375-61.433594-10-10.1875-14.839843-4.539063-23.679687 2.613281-10.304688 8.335937-26.332032.148437-25.601563-13.09375.609375-11.105469 6.023438-20.078125-8.402343-23.96875-22.382813-6.039063-46.261719-6.449219-68.839844-1.183594-14.535156 3.390625-11.753906 10.835938-11 22.679688.855468 13.445312-15.644532 21.65625-25.855469 12.84375-9.242187-7.976563-14.996094-10.683594-24.84375-.632813-16.40625 16.742188-29.328125 37.765625-34.558594 60.753906-2.742187 12.066407 8.5 12.402344 16.289063 17.199219 10.105468 6.21875 9.371094 21.71875-1.273438 26.957031-10.574218 5.199219-19.4375 5.722657-15.683594 20.320313 5.789063 22.503906 17.324219 43.5 33.210938 60.457031 2.972656 3.167969 6.894531 6.71875 11.644531 5.9375zm-.429687-100.328125c.0625-14.117187-8.738282-27.929687-21.601563-33.777343 6.015625-15.074219 13.066407-28.648438 24.429688-40.488282 11.351562 8.808594 28.03125 10.066406 40.574219 3.054688 12.542968-7.015625 20.210937-21.882813 18.652343-36.167969 15.601563-3.308594 31.929688-3.132813 47.460938.5-2.375 14.527344 4.933593 30.15625 17.601562 37.648437 12.667969 7.492188 29.886719 6.367188 41.472657-2.714843 10.8125 11.886719 18.894531 26.242187 23.449218 41.652343-14.199218 4.878907-24.601562 19.210938-24.835937 34.226563s9.714843 29.664063 23.761719 34.980469c-5.070313 15.332031-13.65625 29.488281-24.910157 41.066406-11.234375-9.90625-28.773437-11.878906-41.925781-4.71875-13.15625 7.15625-21.019531 22.957031-18.800781 37.769531-15.769531 3.0625-32.214844 2.582031-47.773438-1.398437 2.558594-14.417969-4.441406-30.066406-16.898437-37.765625-12.453125-7.699219-29.582032-6.96875-41.335938 1.761719-10.476562-11.972657-18.230468-26.316407-22.519531-41.636719 13.324219-5.3125 22.847656-19.019531 23.1875-33.355469.007813-.214844.007813-.425781.011719-.636719zm0 0"/><path d="m256.761719 312.058594c30.617187 0 55.527343-24.910156 55.527343-55.527344s-24.910156-55.527344-55.527343-55.527344c-30.617188 0-55.527344 24.910156-55.527344 55.527344s24.910156 55.527344 55.527344 55.527344zm0-90.828125c19.464843 0 35.300781 15.835937 35.300781 35.300781 0 19.460938-15.835938 35.296875-35.300781 35.296875-19.460938 0-35.296875-15.835937-35.296875-35.296875 0-19.464844 15.835937-35.300781 35.296875-35.300781zm0 0"/></svg>