<?xml version="1.0" encoding="iso-8859-1"?>
<!-- Generator: Adobe Illustrator 19.0.0, SVG Export Plug-In . SVG Version: 6.00 Build 0)  -->
<svg version="1.1" id="Capa_1" xmlns="http://www.w3.org/2000/svg" xmlns:xlink="http://www.w3.org/1999/xlink" x="0px" y="0px"
	 viewBox="0 0 512 512" style="enable-background:new 0 0 512 512;" xml:space="preserve">
<g>
	<g>
		<path d="M480.054,127.8L480.054,127.8c-4.31-8.068-12.596-13.223-21.737-13.525c-9.141-0.302-17.749,4.297-22.581,12.063
			c-4.832,7.766-5.154,17.52-0.844,25.587c15.651,29.503,24.419,62.167,25.646,95.542h-42.405v-51.2c0-4.713-3.82-8.533-8.533-8.533
			s-8.533,3.82-8.533,8.533v51.2h-51.2v-25.6c0-4.713-3.82-8.533-8.533-8.533s-8.533,3.82-8.533,8.533v25.6h-34.996
			c-3.45-16.74-16.531-29.82-33.271-33.271V179.2h25.6c4.713,0,8.533-3.82,8.533-8.533s-3.82-8.533-8.533-8.533h-25.6v-51.2h51.2
			c4.713,0,8.533-3.82,8.533-8.533s-3.82-8.533-8.533-8.533h-51.2V51.463c33.368,1.226,66.025,9.988,95.525,25.629
			c8.067,4.352,17.846,4.057,25.637-0.772c7.791-4.829,12.405-13.455,12.097-22.616c-0.308-9.161-5.491-17.458-13.589-21.753
			c-80.161-42.6-176.247-42.6-256.408,0c-8.092,4.297-13.271,12.59-13.579,21.747c-0.308,9.157,4.301,17.78,12.086,22.611
			c7.785,4.831,17.558,5.133,25.627,0.791c29.503-15.646,62.165-24.411,95.537-25.638v42.404h-51.2c-4.713,0-8.533,3.82-8.533,8.533
			s3.82,8.533,8.533,8.533h51.2v51.2h-25.6c-4.713,0-8.533,3.82-8.533,8.533s3.82,8.533,8.533,8.533h25.6v34.996
			c-16.74,3.45-29.82,16.531-33.271,33.271H179.2v-25.6c0-4.713-3.82-8.533-8.533-8.533s-8.533,3.82-8.533,8.533v25.6h-51.2v-51.2
			c0-4.713-3.82-8.533-8.533-8.533s-8.533,3.82-8.533,8.533v51.2H51.462c1.227-33.375,9.995-66.039,25.646-95.542
			c6.664-12.47,1.958-27.982-10.513-34.646c-12.47-6.664-27.982-1.958-34.646,10.513c-42.599,80.161-42.6,176.246-0.004,256.408
			c6.662,12.471,22.172,17.181,34.644,10.519c12.471-6.662,17.181-22.172,10.519-34.644c-15.651-29.503-24.419-62.167-25.646-95.542
			h42.405v51.2c0,4.713,3.82,8.533,8.533,8.533s8.533-3.82,8.533-8.533v-51.2h51.2v25.6c0,4.713,3.82,8.533,8.533,8.533
			s8.533-3.82,8.533-8.533v-25.6h34.996c3.45,16.74,16.531,29.82,33.271,33.271V332.8h-25.6c-4.713,0-8.533,3.821-8.533,8.533
			s3.82,8.533,8.533,8.533h25.6v51.2h-51.2c-4.713,0-8.533,3.82-8.533,8.533s3.82,8.533,8.533,8.533h51.2v42.404
			c-33.368-1.226-66.025-9.988-95.525-25.629c-8.067-4.352-17.846-4.057-25.637,0.772c-7.791,4.829-12.405,13.455-12.097,22.616
			c0.308,9.161,5.491,17.458,13.589,21.753c80.161,42.6,176.247,42.6,256.408,0c12.425-6.686,17.096-22.165,10.445-34.608
			c-6.651-12.443-22.117-17.158-34.579-10.542c-29.503,15.646-62.165,24.411-95.538,25.638v-42.404h51.2
			c4.713,0,8.533-3.82,8.533-8.533s-3.82-8.533-8.533-8.533h-51.2v-51.2h25.6c4.713,0,8.533-3.82,8.533-8.533
			s-3.82-8.533-8.533-8.533h-25.6v-34.996c16.74-3.45,29.82-16.531,33.271-33.271H332.8v25.6c0,4.713,3.821,8.533,8.533,8.533
			s8.533-3.82,8.533-8.533v-25.6h51.2v51.2c0,4.713,3.82,8.533,8.533,8.533s8.533-3.82,8.533-8.533v-51.2h42.405
			c-1.227,33.375-9.995,66.039-25.646,95.542c-6.664,12.47-1.958,27.982,10.513,34.646s27.982,1.958,34.646-10.513
			C522.649,304.047,522.65,207.963,480.054,127.8z"/>
	</g>
</g>
<g>
</g>
<g>
</g>
<g>
</g>
<g>
</g>
<g>
</g>
<g>
</g>
<g>
</g>
<g>
</g>
<g>
</g>
<g>
</g>
<g>
</g>
<g>
</g>
<g>
</g>
<g>
</g>
<g>
</g>
</svg>
