<svg height="393pt" viewBox="0 -102 393.49923 393" width="393pt" xmlns="http://www.w3.org/2000/svg"><path d="m383.335938.261719h-217.398438c-9.210938 0-19.101562 7.976562-21.59375 17.285156l-25.15625 93.945313 78.144531-44.417969c3.132813-1.773438 7.097657-.886719 9.175781 2.058593l47.410157 67.023438 64.964843-42.300781c2.429688-1.582031 5.578126-1.5 7.925782.199219l37.429687 27.105468 28.703125-107.125c1.0625-3.96875.597656-7.640625-1.308594-10.125-2.042968-2.449218-5.113281-3.800781-8.296874-3.648437zm-71.207032 58.714843c-4.957031 18.5-23.414062 32.992188-42.019531 32.992188-9.46875 0-17.558594-3.742188-22.777344-10.542969-5.332031-6.949219-6.914062-16.453125-4.332031-26.074219 4.957031-18.5 23.414062-32.992187 42.015625-32.992187 9.472656 0 17.5625 3.746094 22.777344 10.542969 5.332031 6.953125 6.910156 16.457031 4.335937 26.074218zm0 0"/><path d="m255.914062 151.570312c-3.152343 2.054688-7.363281 1.246094-9.535156-1.824218l-47.640625-67.335938-84.636719 48.140625-11.773437 43.933594c-1.0625 3.96875-.601563 7.636719 1.308594 10.125 2.039062 2.453125 5.113281 3.804687 8.300781 3.652344h217.398438c9.210937 0 19.101562-7.980469 21.589843-17.285157l9.4375-35.277343-37.871093-27.457031zm0 0"/><path d="m285.011719 36.359375c-12.160157 0-25.207031 10.359375-28.492188 22.617187-1.464843 5.460938-.78125 10.40625 1.921875 13.929688 2.503906 3.265625 6.648438 5.0625 11.667969 5.0625 12.160156 0 25.210937-10.355469 28.496094-22.613281 1.460937-5.460938.78125-10.40625-1.921875-13.929688-2.507813-3.265625-6.652344-5.066406-11.671875-5.066406zm0 0"/><path d="m11 38.261719h93v14h-93zm0 0"/><path d="m23 87.261719h56v14h-56zm0 0"/><path d="m0 136.261719h62v14h-62zm0 0"/></svg>